<svg width="16" height="16" viewBox="0 0 16 16" fill="none" xmlns="http://www.w3.org/2000/svg"><path d="M2.5 11.25H4.5V12.5H2.5V11.25Z" fill="#70DACC"/><path d="M14.75 4.00127H13.3C13.4509 3.68326 13.5194 3.33244 13.4993 2.98104C13.4792 2.62964 13.371 2.28893 13.1848 1.99023C12.9987 1.69153 12.7404 1.44442 12.4337 1.27161C12.1271 1.0988 11.7819 1.00584 11.43 1.00127C10.3929 0.975931 9.38245 1.33171 8.59 2.00127C8.36474 2.1977 8.16636 2.42297 8 2.67127C7.83364 2.42297 7.63526 2.1977 7.41 2.00127C6.61755 1.33171 5.60713 0.975931 4.57 1.00127C4.21805 1.00584 3.8729 1.0988 3.56626 1.27161C3.25962 1.44442 3.00134 1.69153 2.81515 1.99023C2.62896 2.28893 2.52084 2.62964 2.50072 2.98104C2.4806 3.33244 2.54912 3.68326 2.7 4.00127H1.25C0.918479 4.00127 0.600537 4.13296 0.366117 4.36738C0.131696 4.6018 0 4.91974 0 5.25127L0 13.7513C0 14.0828 0.131696 14.4007 0.366117 14.6351C0.600537 14.8696 0.918479 15.0013 1.25 15.0013H14.75C15.0815 15.0013 15.3995 14.8696 15.6339 14.6351C15.8683 14.4007 16 14.0828 16 13.7513V5.25127C16 4.91974 15.8683 4.6018 15.6339 4.36738C15.3995 4.13296 15.0815 4.00127 14.75 4.00127ZM9.42 2.94127C9.98075 2.47602 10.6917 2.23076 11.42 2.25127C11.6454 2.25127 11.8616 2.34082 12.021 2.50022C12.1804 2.65963 12.27 2.87583 12.27 3.10127C12.27 3.3267 12.1804 3.5429 12.021 3.70231C11.8616 3.86171 11.6454 3.95127 11.42 3.95127H8.74C8.87182 3.55963 9.10672 3.21073 9.42 2.94127ZM4.57 2.25127C5.29834 2.23076 6.00925 2.47602 6.57 2.94127C6.88181 3.20798 7.11659 3.55324 7.25 3.94127H4.57C4.34457 3.94127 4.12837 3.85171 3.96896 3.69231C3.80955 3.5329 3.72 3.3167 3.72 3.09127C3.72 2.86583 3.80955 2.64963 3.96896 2.49022C4.12837 2.33082 4.34457 2.24127 4.57 2.24127V2.25127ZM1.25 5.25127H14.75V6.50127H1.25V5.25127ZM1.25 13.7513V9.00127H14.75V13.7513H1.25Z" fill="#70DACC"/></svg>